<?xml version="1.0" encoding="UTF-8"?>
<svg width="3480" height="1330" viewBox="-7.5 -7.5 3480 1330" xmlns="http://www.w3.org/2000/svg">
  <defs>
    <!-- Hinge symbol -->
    <symbol id="hinge" width="32" height="105">
      <rect width="32" height="105" fill="#555" />
      <line x1="0" y1="35" x2="32" y2="35" stroke="#888" stroke-width="1" />
      <line x1="0" y1="70" x2="32" y2="70" stroke="#888" stroke-width="1" />
    </symbol>

    <!-- Post symbol -->
    <symbol id="post">
      <line x1="50" y1="0" x2="50" y2="1330" stroke="#555" stroke-width="100" />
    </symbol>
  </defs>

  <!-- Background (light blue gradient) -->
  <rect x="-7.5" y="-7.5" width="3480" height="1330" fill="url(#bg-gradient)" />
  <defs>
    <linearGradient id="bg-gradient" x1="0%" y1="0%" x2="0%" y2="100%">
      <stop offset="0%" style="stop-color:#d4e6f1;stop-opacity:1" />
      <stop offset="50%" style="stop-color:#e8f4f8;stop-opacity:1" />
      <stop offset="100%" style="stop-color:#d0d8dc;stop-opacity:1" />
    </linearGradient>
  </defs>

  <!-- Left side -->
  <use href="#post" x="0" y="-7.5" />
  <use href="#hinge" x="105.25" y="10" />
  <use href="#hinge" x="105.25" y="1100" />

  <!-- Left wing -->
  <g id="wing1">
    <!-- Frame horizontal edges -->
    <line x1="123.23" y1="7.5" x2="1275.82" y2="7.5" stroke="#555" stroke-width="15" />
    <line x1="123.23" y1="1207.5" x2="1275.82" y2="1207.5" stroke="#555" stroke-width="15" />

    <!-- Frame vertical edges -->
    <line x1="142.68" y1="7.5" x2="142.68" y2="1207.5" stroke="#555" stroke-width="38.89" />
    <line x1="1256.37" y1="7.5" x2="1256.37" y2="1207.5" stroke="#555" stroke-width="38.89" />

    <!-- Horizontal reinforcements -->
    <line x1="142.68" y1="242.5" x2="1256.37" y2="242.5" stroke="#555" stroke-width="15" />
    <line x1="142.68" y1="1092.5" x2="1256.37" y2="1092.5" stroke="#555" stroke-width="15" />

    <!-- Vertical bars -->
    <line x1="228.34" y1="7.5" x2="228.34" y2="1207.5" stroke="#555" stroke-width="15" />
    <line x1="314.02" y1="7.5" x2="314.02" y2="1207.5" stroke="#555" stroke-width="15" />
    <line x1="399.68" y1="7.5" x2="399.68" y2="1207.5" stroke="#555" stroke-width="15" />
    <line x1="485.36" y1="7.5" x2="485.36" y2="1207.5" stroke="#555" stroke-width="15" />
    <line x1="571.02" y1="7.5" x2="571.02" y2="1207.5" stroke="#555" stroke-width="15" />
    <line x1="656.69" y1="7.5" x2="656.69" y2="1207.5" stroke="#555" stroke-width="15" />
    <line x1="742.36" y1="7.5" x2="742.36" y2="1207.5" stroke="#555" stroke-width="15" />
    <line x1="828.03" y1="7.5" x2="828.03" y2="1207.5" stroke="#555" stroke-width="15" />
    <line x1="913.69" y1="7.5" x2="913.69" y2="1207.5" stroke="#555" stroke-width="15" />
    <line x1="999.37" y1="7.5" x2="999.37" y2="1207.5" stroke="#555" stroke-width="15" />
    <line x1="1085.03" y1="7.5" x2="1085.03" y2="1207.5" stroke="#555" stroke-width="15" />
    <line x1="1170.70" y1="7.5" x2="1170.70" y2="1207.5" stroke="#555" stroke-width="15" />
  </g>

  <!-- Right side (mirrored) -->
  <g transform="translate(3480, 0) scale(-1, 1)">
    <use href="#post" x="0" y="-7.5" />
    <use href="#hinge" x="105.25" y="10" />
    <use href="#hinge" x="105.25" y="1100" />

    <!-- Right wing -->
    <g id="wing2">
      <!-- Frame horizontal edges -->
      <line x1="123.23" y1="7.5" x2="1275.82" y2="7.5" stroke="#555" stroke-width="15" />
      <line x1="123.23" y1="1207.5" x2="1275.82" y2="1207.5" stroke="#555" stroke-width="15" />

      <!-- Frame vertical edges -->
      <line x1="142.68" y1="7.5" x2="142.68" y2="1207.5" stroke="#555" stroke-width="38.89" />
      <line x1="1256.37" y1="7.5" x2="1256.37" y2="1207.5" stroke="#555" stroke-width="38.89" />

      <!-- Horizontal reinforcements -->
      <line x1="142.68" y1="242.5" x2="1256.37" y2="242.5" stroke="#555" stroke-width="15" />
      <line x1="142.68" y1="1092.5" x2="1256.37" y2="1092.5" stroke="#555" stroke-width="15" />

      <!-- Vertical bars -->
      <line x1="228.34" y1="7.5" x2="228.34" y2="1207.5" stroke="#555" stroke-width="15" />
      <line x1="314.02" y1="7.5" x2="314.02" y2="1207.5" stroke="#555" stroke-width="15" />
      <line x1="399.68" y1="7.5" x2="399.68" y2="1207.5" stroke="#555" stroke-width="15" />
      <line x1="485.36" y1="7.5" x2="485.36" y2="1207.5" stroke="#555" stroke-width="15" />
      <line x1="571.02" y1="7.5" x2="571.02" y2="1207.5" stroke="#555" stroke-width="15" />
      <line x1="656.69" y1="7.5" x2="656.69" y2="1207.5" stroke="#555" stroke-width="15" />
      <line x1="742.36" y1="7.5" x2="742.36" y2="1207.5" stroke="#555" stroke-width="15" />
      <line x1="828.03" y1="7.5" x2="828.03" y2="1207.5" stroke="#555" stroke-width="15" />
      <line x1="913.69" y1="7.5" x2="913.69" y2="1207.5" stroke="#555" stroke-width="15" />
      <line x1="999.37" y1="7.5" x2="999.37" y2="1207.5" stroke="#555" stroke-width="15" />
      <line x1="1085.03" y1="7.5" x2="1085.03" y2="1207.5" stroke="#555" stroke-width="15" />
      <line x1="1170.70" y1="7.5" x2="1170.70" y2="1207.5" stroke="#555" stroke-width="15" />
    </g>
  </g>
</svg>
